# xmcd
#
# Track frame offsets: 
#        150
#        13737
#        28899
#        42238
#        64577
#        83755
#        105259
#        128479
#        149459
#        173693
#        196535
#        212704
#
# Disc length: 3156 seconds
#
# Revision: 0
# Processed by: cddbd v1.5.2PL0 Copyright (c) Steve Scherf et al.
# Submitted via: ExactAudioCopy v0.99pb5
#
DISCID=950c520c
DTITLE=Johnny Nicholas - Future Blues 
DYEAR=2011
DGENRE=Blues
TTITLE0=Hey Hey
TTITLE1=Hell Bent
TTITLE2=Don't Say I Never Told You So
TTITLE3=Hard Time Livin'
TTITLE4=Roads On Fire
TTITLE5=Mister Moon
TTITLE6=Future Blues
TTITLE7=Graveyard Blues
TTITLE8=That's The Price
TTITLE9=(It's All Over Now) Baby Blues
TTITLE10=Pass Your Tender Lips
TTITLE11=Steadfast
EXTD=
EXTT0=
EXTT1=
EXTT2=
EXTT3=
EXTT4=
EXTT5=
EXTT6=
EXTT7=
EXTT8=
EXTT9=
EXTT10=
EXTT11=
PLAYORDER=
